<svg width="452" height="125" viewBox="0 0 452 125" fill="none" xmlns="http://www.w3.org/2000/svg">
<rect width="125" height="125" rx="16" fill="black"/>
<path d="M35.5 35.5L25.5 52.5L40.5 63L25 73L35.5 90L52 81.5V100H73V81.5L90.5 89.5L100 73L84.5 63L101 52.5L90.5 35.5L73 44V25H52V44L35.5 35.5Z" stroke="white" stroke-width="5" stroke-linejoin="round"/>
<path d="M171.992 91H148.28V88.112C150.307 86.9973 152.359 86.2627 154.436 85.908V42.892C153.423 42.74 152.359 42.4613 151.244 42.056C150.129 41.6507 149.141 41.1947 148.28 40.688V37.8H171.992V40.688C171.08 41.2453 170.067 41.7267 168.952 42.132C167.888 42.4867 166.849 42.74 165.836 42.892V85.908C166.849 86.1107 167.888 86.3893 168.952 86.744C170.067 87.0987 171.08 87.5547 171.992 88.112V91ZM222.309 91H202.169V88.036C202.828 87.6813 203.461 87.3773 204.069 87.124C204.728 86.82 205.488 86.516 206.349 86.212V68.352C206.349 65.16 205.893 62.6773 204.981 60.904C204.069 59.08 202.448 58.168 200.117 58.168C198.192 58.168 196.52 58.8013 195.101 60.068C193.733 61.284 192.695 62.956 191.985 65.084V86.212C192.796 86.4147 193.505 86.668 194.113 86.972C194.772 87.2253 195.456 87.58 196.165 88.036V91H176.025V88.036C177.292 87.3773 178.964 86.7693 181.041 86.212V58.396L176.025 57.788V54.824C176.684 54.52 177.545 54.2413 178.609 53.988C179.673 53.684 180.813 53.4053 182.029 53.152C183.296 52.8987 184.563 52.696 185.829 52.544C187.147 52.3413 188.337 52.1893 189.401 52.088H191.985V59.916H192.061C193.125 57.788 194.721 55.964 196.849 54.444C198.977 52.8733 201.561 52.088 204.601 52.088C206.577 52.088 208.351 52.3413 209.921 52.848C211.492 53.304 212.809 54.14 213.873 55.356C214.988 56.572 215.824 58.2187 216.381 60.296C216.989 62.3227 217.293 64.9067 217.293 68.048V86.212C219.32 86.5667 220.992 87.1747 222.309 88.036V91ZM247.66 53H265.444V55.964C264.481 56.3693 263.569 56.724 262.708 57.028C261.897 57.332 260.985 57.5853 259.972 57.788C259.212 58.8013 258.376 59.8147 257.464 60.828C256.602 61.7907 255.716 62.728 254.804 63.64C253.942 64.552 253.106 65.4387 252.296 66.3C251.485 67.1107 250.75 67.8453 250.092 68.504C250.852 69.5173 251.738 70.7333 252.752 72.152C253.765 73.5707 254.854 75.0907 256.02 76.712C257.185 78.2827 258.401 79.904 259.668 81.576C260.985 83.1973 262.302 84.7427 263.62 86.212L267.496 88.036V91H254.652L252.6 89.176C251.434 87.6053 250.396 86.136 249.484 84.768C248.622 83.4 247.837 82.0827 247.128 80.816C246.418 79.5493 245.734 78.3333 245.076 77.168C244.417 75.952 243.758 74.7613 243.1 73.596L240.592 72.836V86.212C241.453 86.364 242.238 86.592 242.948 86.896C243.657 87.2 244.417 87.58 245.228 88.036V91H224.632V88.036C226.304 87.2253 227.976 86.6173 229.648 86.212V40.156L223.872 39.548V36.584C224.581 36.28 225.544 35.976 226.76 35.672C227.976 35.368 229.268 35.1147 230.636 34.912C232.004 34.6587 233.346 34.456 234.664 34.304C235.981 34.1013 237.096 33.9493 238.008 33.848H240.592V69.492H242.568C244.24 67.7187 245.785 65.768 247.204 63.64C248.673 61.512 249.965 59.5613 251.08 57.788C250.421 57.5853 249.813 57.332 249.256 57.028C248.749 56.724 248.217 56.3693 247.66 55.964V53ZM282.251 91.912L270.319 57.788C269.609 57.5347 268.9 57.2813 268.191 57.028C267.532 56.724 266.899 56.3693 266.291 55.964V53H285.519V55.888C284.809 56.2933 284.1 56.6733 283.391 57.028C282.681 57.332 281.947 57.5853 281.187 57.788L286.431 77.244L287.419 83.096H287.571L288.939 77.016L296.995 53.456L300.719 53L309.383 77.092L310.979 83.096H311.131L312.347 77.168L316.907 57.788C316.349 57.6867 315.691 57.484 314.931 57.18C314.221 56.876 313.487 56.4707 312.727 55.964V53H327.395V55.964C326.331 56.6733 324.887 57.2813 323.063 57.788L312.499 91L305.355 91.912L298.819 73.14L297.375 66.832H297.147L295.399 73.14L289.319 91L282.251 91.912ZM362.694 84.616C362.288 85.4773 361.63 86.364 360.718 87.276C359.856 88.1373 358.767 88.9227 357.45 89.632C356.183 90.2907 354.688 90.8227 352.966 91.228C351.294 91.684 349.47 91.912 347.494 91.912C344.352 91.912 341.566 91.456 339.134 90.544C336.702 89.5813 334.675 88.2387 333.054 86.516C331.432 84.7427 330.191 82.64 329.33 80.208C328.519 77.776 328.114 75.04 328.114 72C328.114 65.5147 329.811 60.5747 333.206 57.18C336.6 53.7853 341.312 52.088 347.342 52.088C349.926 52.088 352.332 52.4427 354.562 53.152C356.842 53.8613 358.716 55.0267 360.186 56.648C361.706 58.2693 362.744 60.3973 363.302 63.032C363.91 65.6667 363.884 68.884 363.226 72.684H339.894C339.944 76.6867 340.958 79.8787 342.934 82.26C344.96 84.6413 347.924 85.832 351.826 85.832C353.498 85.832 355.22 85.5787 356.994 85.072C358.818 84.5653 360.236 83.9067 361.25 83.096L362.694 84.616ZM347.038 56.42C346.024 56.42 345.112 56.5973 344.302 56.952C343.542 57.3067 342.858 57.9653 342.25 58.928C341.692 59.84 341.236 61.1067 340.882 62.728C340.527 64.2987 340.274 66.3 340.122 68.732H352.358C352.712 64.78 352.484 61.74 351.674 59.612C350.863 57.484 349.318 56.42 347.038 56.42ZM389.91 91H368.934V88.036C370.606 87.2253 372.278 86.6173 373.95 86.212V40.156L368.174 39.548V36.584C368.833 36.28 369.745 35.976 370.91 35.672C372.075 35.368 373.317 35.1147 374.634 34.912C376.002 34.6587 377.345 34.456 378.662 34.304C380.03 34.1013 381.246 33.9493 382.31 33.848H384.894V86.212C386.566 86.6173 388.238 87.2253 389.91 88.036V91ZM415.145 91H394.169V88.036C395.841 87.2253 397.513 86.6173 399.185 86.212V40.156L393.409 39.548V36.584C394.067 36.28 394.979 35.976 396.145 35.672C397.31 35.368 398.551 35.1147 399.869 34.912C401.237 34.6587 402.579 34.456 403.897 34.304C405.265 34.1013 406.481 33.9493 407.545 33.848H410.129V86.212C411.801 86.6173 413.473 87.2253 415.145 88.036V91ZM438.935 82.716C438.935 81.3987 438.454 80.2587 437.491 79.296C436.579 78.3333 435.414 77.4467 433.995 76.636C432.627 75.8253 431.107 75.0147 429.435 74.204C427.814 73.3933 426.294 72.456 424.875 71.392C423.507 70.2773 422.342 68.9853 421.379 67.516C420.467 66.0467 420.011 64.248 420.011 62.12C420.011 60.6 420.366 59.232 421.075 58.016C421.784 56.7493 422.747 55.6853 423.963 54.824C425.179 53.9627 426.623 53.304 428.295 52.848C430.018 52.3413 431.867 52.088 433.843 52.088C436.579 52.088 439.112 52.316 441.443 52.772C443.824 53.1773 445.902 53.76 447.675 54.52C447.472 56.1413 447.067 57.8893 446.459 59.764C445.851 61.588 445.268 63.26 444.711 64.78H442.127L438.935 57.028C438.327 56.7747 437.694 56.6227 437.035 56.572C436.376 56.4707 435.642 56.42 434.831 56.42C433.311 56.42 432.146 56.876 431.335 57.788C430.575 58.6493 430.195 59.6373 430.195 60.752C430.195 62.0187 430.651 63.1333 431.563 64.096C432.526 65.008 433.691 65.8693 435.059 66.68C436.478 67.4907 437.998 68.3013 439.619 69.112C441.291 69.9227 442.811 70.86 444.179 71.924C445.598 72.9373 446.763 74.1533 447.675 75.572C448.638 76.9907 449.119 78.688 449.119 80.664C449.119 84.16 447.7 86.9213 444.863 88.948C442.026 90.924 438.226 91.912 433.463 91.912C431.031 91.912 428.523 91.6587 425.939 91.152C423.355 90.6453 421.126 89.936 419.251 89.024C419.352 87.2 419.783 85.3507 420.543 83.476C421.303 81.6013 422.114 79.9293 422.975 78.46H425.559L429.283 86.744C429.84 87.1493 430.448 87.4027 431.107 87.504C431.816 87.5547 432.475 87.58 433.083 87.58C434.552 87.58 435.895 87.1493 437.111 86.288C438.327 85.4267 438.935 84.236 438.935 82.716Z" fill="black"/>
</svg>
